<svg width="36" height="26" viewBox="0 0 36 26" fill="none" xmlns="http://www.w3.org/2000/svg">
<path d="M25.7143 13C25.7143 12.5045 25.5134 12.1429 25.1116 11.9152L14.8259 5.48661C14.4107 5.21875 13.9754 5.20536 13.5201 5.44643C13.0781 5.6875 12.8571 6.0625 12.8571 6.57143V19.4286C12.8571 19.9375 13.0781 20.3125 13.5201 20.5536C13.7344 20.6607 13.942 20.7143 14.1429 20.7143C14.4107 20.7143 14.6384 20.6473 14.8259 20.5134L25.1116 14.0848C25.5134 13.8571 25.7143 13.4955 25.7143 13ZM36 13C36 14.2857 35.9933 15.2902 35.9799 16.0134C35.9665 16.7366 35.9096 17.6507 35.8092 18.7556C35.7087 19.8605 35.558 20.8482 35.3571 21.7188C35.1429 22.6964 34.6808 23.5201 33.971 24.1897C33.2612 24.8594 32.4308 25.2478 31.4799 25.3549C28.5067 25.6897 24.0134 25.8572 18 25.8572C11.9866 25.8572 7.4933 25.6897 4.52009 25.3549C3.5692 25.2478 2.73549 24.8594 2.01897 24.1897C1.30246 23.5201 0.837054 22.6964 0.622768 21.7188C0.435268 20.8482 0.291295 19.8605 0.190848 18.7556C0.0904018 17.6507 0.0334821 16.7366 0.0200893 16.0134C0.00669643 15.2902 0 14.2857 0 13C0 11.7143 0.00669643 10.7098 0.0200893 9.98661C0.0334821 9.2634 0.0904018 8.34933 0.190848 7.24442C0.291295 6.13951 0.441964 5.15179 0.642857 4.28125C0.857143 3.30358 1.3192 2.47991 2.02902 1.81027C2.73884 1.14063 3.5692 0.752236 4.52009 0.645093C7.4933 0.310271 11.9866 0.14286 18 0.14286C24.0134 0.14286 28.5067 0.310271 31.4799 0.645093C32.4308 0.752236 33.2645 1.14063 33.981 1.81027C34.6975 2.47991 35.1629 3.30358 35.3772 4.28125C35.5647 5.15179 35.7087 6.13951 35.8092 7.24442C35.9096 8.34933 35.9665 9.2634 35.9799 9.98661C35.9933 10.7098 36 11.7143 36 13Z" fill="url(#paint0_linear_270_82)"/>
<defs>
<linearGradient id="paint0_linear_270_82" x1="5.5" y1="13" x2="43.5" y2="37" gradientUnits="userSpaceOnUse">
<stop stop-color="#41435A"/>
<stop offset="1" stop-color="#6870BA" stop-opacity="0"/>
</linearGradient>
</defs>
</svg>
